<mxfile host="app.diagrams.net" modified="2023-08-12T16:14:19.307Z" agent="Mozilla/5.0 (Windows NT 10.0; Win64; x64) AppleWebKit/537.36 (KHTML, like Gecko) Chrome/115.0.0.0 Safari/537.36" etag="gO2pm-EoCQsFOvl7kFF9" version="21.6.6" type="github">
  <diagram name="PÃ¡gina-1" id="qULuqshbbnDp0j6TJcrZ">
    <mxGraphModel dx="1877" dy="566" grid="1" gridSize="10" guides="1" tooltips="1" connect="1" arrows="1" fold="1" page="1" pageScale="1" pageWidth="827" pageHeight="1169" math="0" shadow="0">
      <root>
        <mxCell id="0" />
        <mxCell id="1" parent="0" />
        <mxCell id="UwhHa9v02V89wl-4KPj6-1" value="DescuentoParcial&amp;nbsp;" style="rounded=1;whiteSpace=wrap;html=1;" vertex="1" parent="1">
          <mxGeometry x="340" y="70" width="120" height="60" as="geometry" />
        </mxCell>
        <mxCell id="UwhHa9v02V89wl-4KPj6-3" value="" style="endArrow=none;html=1;rounded=0;entryX=0.5;entryY=1;entryDx=0;entryDy=0;exitX=0.5;exitY=0;exitDx=0;exitDy=0;" edge="1" parent="1" source="UwhHa9v02V89wl-4KPj6-4" target="UwhHa9v02V89wl-4KPj6-1">
          <mxGeometry width="50" height="50" relative="1" as="geometry">
            <mxPoint x="400" y="170" as="sourcePoint" />
            <mxPoint x="410" y="260" as="targetPoint" />
          </mxGeometry>
        </mxCell>
        <mxCell id="UwhHa9v02V89wl-4KPj6-4" value="Ingrese el monto de su Compra" style="rounded=0;whiteSpace=wrap;html=1;" vertex="1" parent="1">
          <mxGeometry x="290" y="180" width="220" height="20" as="geometry" />
        </mxCell>
        <mxCell id="UwhHa9v02V89wl-4KPj6-5" value="Monto" style="shape=parallelogram;perimeter=parallelogramPerimeter;whiteSpace=wrap;html=1;fixedSize=1;" vertex="1" parent="1">
          <mxGeometry x="340" y="230" width="120" height="40" as="geometry" />
        </mxCell>
        <mxCell id="UwhHa9v02V89wl-4KPj6-7" value="" style="endArrow=none;html=1;rounded=0;entryX=0.5;entryY=1;entryDx=0;entryDy=0;" edge="1" parent="1" target="UwhHa9v02V89wl-4KPj6-4">
          <mxGeometry width="50" height="50" relative="1" as="geometry">
            <mxPoint x="400" y="230" as="sourcePoint" />
            <mxPoint x="440" y="270" as="targetPoint" />
          </mxGeometry>
        </mxCell>
        <mxCell id="UwhHa9v02V89wl-4KPj6-8" value="monto &amp;lt; 500" style="rhombus;whiteSpace=wrap;html=1;" vertex="1" parent="1">
          <mxGeometry x="320" y="290" width="160" height="80" as="geometry" />
        </mxCell>
        <mxCell id="UwhHa9v02V89wl-4KPj6-9" value="" style="endArrow=none;html=1;rounded=0;entryX=0.5;entryY=1;entryDx=0;entryDy=0;exitX=0.5;exitY=0;exitDx=0;exitDy=0;" edge="1" parent="1" source="UwhHa9v02V89wl-4KPj6-8" target="UwhHa9v02V89wl-4KPj6-5">
          <mxGeometry width="50" height="50" relative="1" as="geometry">
            <mxPoint x="390" y="320" as="sourcePoint" />
            <mxPoint x="440" y="270" as="targetPoint" />
          </mxGeometry>
        </mxCell>
        <mxCell id="UwhHa9v02V89wl-4KPj6-10" style="edgeStyle=orthogonalEdgeStyle;rounded=0;orthogonalLoop=1;jettySize=auto;html=1;exitX=0.5;exitY=1;exitDx=0;exitDy=0;" edge="1" parent="1" source="UwhHa9v02V89wl-4KPj6-8" target="UwhHa9v02V89wl-4KPj6-8">
          <mxGeometry relative="1" as="geometry" />
        </mxCell>
        <mxCell id="UwhHa9v02V89wl-4KPj6-11" value="" style="endArrow=none;html=1;rounded=0;" edge="1" parent="1">
          <mxGeometry width="50" height="50" relative="1" as="geometry">
            <mxPoint x="550" y="330" as="sourcePoint" />
            <mxPoint x="480" y="330" as="targetPoint" />
          </mxGeometry>
        </mxCell>
        <mxCell id="UwhHa9v02V89wl-4KPj6-12" value="" style="endArrow=none;html=1;rounded=0;" edge="1" parent="1">
          <mxGeometry width="50" height="50" relative="1" as="geometry">
            <mxPoint x="560" y="840" as="sourcePoint" />
            <mxPoint x="560" y="327.5" as="targetPoint" />
          </mxGeometry>
        </mxCell>
        <mxCell id="UwhHa9v02V89wl-4KPj6-13" value="" style="endArrow=none;html=1;rounded=0;entryX=0;entryY=0.5;entryDx=0;entryDy=0;" edge="1" parent="1" target="UwhHa9v02V89wl-4KPj6-8">
          <mxGeometry width="50" height="50" relative="1" as="geometry">
            <mxPoint x="280" y="340" as="sourcePoint" />
            <mxPoint x="440" y="390" as="targetPoint" />
          </mxGeometry>
        </mxCell>
        <mxCell id="UwhHa9v02V89wl-4KPj6-14" value="" style="endArrow=none;html=1;rounded=0;" edge="1" parent="1">
          <mxGeometry width="50" height="50" relative="1" as="geometry">
            <mxPoint x="280" y="800" as="sourcePoint" />
            <mxPoint x="280" y="340" as="targetPoint" />
            <Array as="points" />
          </mxGeometry>
        </mxCell>
        <mxCell id="UwhHa9v02V89wl-4KPj6-15" value="monto &amp;gt; 500 a &lt;span style=&quot;font-size: 10px;&quot;&gt;&amp;lt;&lt;/span&gt;7000" style="rhombus;whiteSpace=wrap;html=1;" vertex="1" parent="1">
          <mxGeometry x="110" y="400" width="160" height="80" as="geometry" />
        </mxCell>
        <mxCell id="UwhHa9v02V89wl-4KPj6-17" value="monto &amp;gt;7000 a &amp;lt;15000" style="rhombus;whiteSpace=wrap;html=1;" vertex="1" parent="1">
          <mxGeometry x="-130" y="480" width="170" height="80" as="geometry" />
        </mxCell>
        <mxCell id="UwhHa9v02V89wl-4KPj6-18" value="" style="endArrow=none;html=1;rounded=0;entryX=0;entryY=0.5;entryDx=0;entryDy=0;" edge="1" parent="1" target="UwhHa9v02V89wl-4KPj6-15">
          <mxGeometry width="50" height="50" relative="1" as="geometry">
            <mxPoint x="70" y="440" as="sourcePoint" />
            <mxPoint x="320" y="450" as="targetPoint" />
          </mxGeometry>
        </mxCell>
        <mxCell id="UwhHa9v02V89wl-4KPj6-20" value="" style="endArrow=none;html=1;rounded=0;entryX=0;entryY=0.5;entryDx=0;entryDy=0;" edge="1" parent="1" target="UwhHa9v02V89wl-4KPj6-17">
          <mxGeometry width="50" height="50" relative="1" as="geometry">
            <mxPoint x="-180" y="520" as="sourcePoint" />
            <mxPoint x="330" y="650" as="targetPoint" />
          </mxGeometry>
        </mxCell>
        <mxCell id="UwhHa9v02V89wl-4KPj6-21" value="" style="endArrow=none;html=1;rounded=0;" edge="1" parent="1">
          <mxGeometry width="50" height="50" relative="1" as="geometry">
            <mxPoint x="-180" y="580" as="sourcePoint" />
            <mxPoint x="-180" y="520" as="targetPoint" />
          </mxGeometry>
        </mxCell>
        <mxCell id="UwhHa9v02V89wl-4KPj6-22" value="monto &lt;span style=&quot;font-size: 10px;&quot;&gt;&amp;gt; 15000&lt;/span&gt;" style="rhombus;whiteSpace=wrap;html=1;" vertex="1" parent="1">
          <mxGeometry x="-360" y="540" width="180" height="80" as="geometry" />
        </mxCell>
        <mxCell id="UwhHa9v02V89wl-4KPj6-23" value="Descuento del 18%" style="rounded=1;whiteSpace=wrap;html=1;" vertex="1" parent="1">
          <mxGeometry x="-20" y="610" width="120" height="20" as="geometry" />
        </mxCell>
        <mxCell id="UwhHa9v02V89wl-4KPj6-24" value="Descuento del 11%" style="rounded=1;whiteSpace=wrap;html=1;" vertex="1" parent="1">
          <mxGeometry x="190" y="510" width="150" height="20" as="geometry" />
        </mxCell>
        <mxCell id="UwhHa9v02V89wl-4KPj6-26" value="Descuento del 5%" style="rounded=1;whiteSpace=wrap;html=1;" vertex="1" parent="1">
          <mxGeometry x="490" y="460" width="120" height="20" as="geometry" />
        </mxCell>
        <mxCell id="UwhHa9v02V89wl-4KPj6-27" value="" style="endArrow=none;html=1;rounded=0;entryX=1;entryY=0.5;entryDx=0;entryDy=0;" edge="1" parent="1" source="UwhHa9v02V89wl-4KPj6-29" target="UwhHa9v02V89wl-4KPj6-22">
          <mxGeometry width="50" height="50" relative="1" as="geometry">
            <mxPoint x="-180" y="720" as="sourcePoint" />
            <mxPoint x="-100" y="570" as="targetPoint" />
          </mxGeometry>
        </mxCell>
        <mxCell id="UwhHa9v02V89wl-4KPj6-30" value="" style="endArrow=none;html=1;rounded=0;entryX=0.5;entryY=1;entryDx=0;entryDy=0;" edge="1" parent="1" target="UwhHa9v02V89wl-4KPj6-29">
          <mxGeometry width="50" height="50" relative="1" as="geometry">
            <mxPoint x="-180" y="720" as="sourcePoint" />
            <mxPoint x="-180" y="580" as="targetPoint" />
          </mxGeometry>
        </mxCell>
        <mxCell id="UwhHa9v02V89wl-4KPj6-29" value="Descuento del 25%" style="rounded=1;whiteSpace=wrap;html=1;" vertex="1" parent="1">
          <mxGeometry x="-240" y="650" width="120" height="20" as="geometry" />
        </mxCell>
        <mxCell id="UwhHa9v02V89wl-4KPj6-31" value="" style="endArrow=none;html=1;rounded=0;entryX=0;entryY=0.5;entryDx=0;entryDy=0;" edge="1" parent="1" target="UwhHa9v02V89wl-4KPj6-22">
          <mxGeometry width="50" height="50" relative="1" as="geometry">
            <mxPoint x="-360" y="720" as="sourcePoint" />
            <mxPoint x="-310" y="570" as="targetPoint" />
          </mxGeometry>
        </mxCell>
        <mxCell id="UwhHa9v02V89wl-4KPj6-34" value="" style="endArrow=none;html=1;rounded=0;" edge="1" parent="1">
          <mxGeometry width="50" height="50" relative="1" as="geometry">
            <mxPoint x="-360" y="720" as="sourcePoint" />
            <mxPoint x="-180" y="720" as="targetPoint" />
          </mxGeometry>
        </mxCell>
        <mxCell id="UwhHa9v02V89wl-4KPj6-35" value="" style="endArrow=none;html=1;rounded=0;" edge="1" parent="1">
          <mxGeometry width="50" height="50" relative="1" as="geometry">
            <mxPoint x="-270" y="760" as="sourcePoint" />
            <mxPoint x="40" y="760" as="targetPoint" />
          </mxGeometry>
        </mxCell>
        <mxCell id="UwhHa9v02V89wl-4KPj6-36" value="" style="endArrow=none;html=1;rounded=0;" edge="1" parent="1">
          <mxGeometry width="50" height="50" relative="1" as="geometry">
            <mxPoint x="-270.5" y="760" as="sourcePoint" />
            <mxPoint x="-270.5" y="720" as="targetPoint" />
            <Array as="points" />
          </mxGeometry>
        </mxCell>
        <mxCell id="UwhHa9v02V89wl-4KPj6-37" value="" style="endArrow=none;html=1;rounded=0;" edge="1" parent="1">
          <mxGeometry width="50" height="50" relative="1" as="geometry">
            <mxPoint x="-70" y="800" as="sourcePoint" />
            <mxPoint x="280" y="800" as="targetPoint" />
            <Array as="points" />
          </mxGeometry>
        </mxCell>
        <mxCell id="UwhHa9v02V89wl-4KPj6-39" value="" style="endArrow=none;html=1;rounded=0;" edge="1" parent="1">
          <mxGeometry width="50" height="50" relative="1" as="geometry">
            <mxPoint x="190" y="840" as="sourcePoint" />
            <mxPoint x="560" y="840" as="targetPoint" />
          </mxGeometry>
        </mxCell>
        <mxCell id="UwhHa9v02V89wl-4KPj6-42" value="" style="endArrow=none;html=1;rounded=0;" edge="1" parent="1">
          <mxGeometry width="50" height="50" relative="1" as="geometry">
            <mxPoint x="189.5" y="840" as="sourcePoint" />
            <mxPoint x="189.5" y="800" as="targetPoint" />
          </mxGeometry>
        </mxCell>
        <mxCell id="UwhHa9v02V89wl-4KPj6-43" value="" style="endArrow=none;html=1;rounded=0;" edge="1" parent="1">
          <mxGeometry width="50" height="50" relative="1" as="geometry">
            <mxPoint x="40" y="440" as="sourcePoint" />
            <mxPoint x="70" y="440" as="targetPoint" />
          </mxGeometry>
        </mxCell>
        <mxCell id="UwhHa9v02V89wl-4KPj6-44" value="" style="endArrow=none;html=1;rounded=0;" edge="1" parent="1">
          <mxGeometry width="50" height="50" relative="1" as="geometry">
            <mxPoint x="40" y="760" as="sourcePoint" />
            <mxPoint x="40" y="440" as="targetPoint" />
          </mxGeometry>
        </mxCell>
        <mxCell id="UwhHa9v02V89wl-4KPj6-45" value="" style="endArrow=none;html=1;rounded=0;" edge="1" parent="1">
          <mxGeometry width="50" height="50" relative="1" as="geometry">
            <mxPoint x="-70" y="800" as="sourcePoint" />
            <mxPoint x="-70" y="760" as="targetPoint" />
          </mxGeometry>
        </mxCell>
        <mxCell id="UwhHa9v02V89wl-4KPj6-46" value="" style="endArrow=none;html=1;rounded=0;exitX=0.5;exitY=0;exitDx=0;exitDy=0;" edge="1" parent="1" source="UwhHa9v02V89wl-4KPj6-48">
          <mxGeometry width="50" height="50" relative="1" as="geometry">
            <mxPoint x="560" y="900" as="sourcePoint" />
            <mxPoint x="560" y="840" as="targetPoint" />
          </mxGeometry>
        </mxCell>
        <mxCell id="UwhHa9v02V89wl-4KPj6-47" value="Descuento Aplicado&amp;nbsp;" style="rounded=1;whiteSpace=wrap;html=1;" vertex="1" parent="1">
          <mxGeometry x="500" y="900" width="120" height="40" as="geometry" />
        </mxCell>
        <mxCell id="UwhHa9v02V89wl-4KPj6-48" value="Fin Algoritmo" style="rounded=1;whiteSpace=wrap;html=1;" vertex="1" parent="1">
          <mxGeometry x="500" y="970" width="120" height="40" as="geometry" />
        </mxCell>
      </root>
    </mxGraphModel>
  </diagram>
</mxfile>
